<svg width="17" height="17" viewBox="0 0 17 17" fill="none" xmlns="http://www.w3.org/2000/svg">
<g clip-path="url(#clip0_0_321)">
<path d="M4.97965 0.059447C4.07525 0.102117 3.45764 0.246447 2.91772 0.458607C2.35893 0.676377 1.88531 0.968607 1.41407 1.44155C0.942834 1.91449 0.652644 2.38845 0.436404 2.94809C0.227134 3.4892 0.0853538 4.10732 0.0454038 5.01223C0.00545379 5.91714 -0.00338622 6.20801 0.00103378 8.51627C0.00545378 10.8245 0.0156538 11.1139 0.0595138 12.0206C0.102694 12.9249 0.246514 13.5423 0.458674 14.0824C0.676784 14.6412 0.968674 15.1146 1.44178 15.5861C1.91489 16.0575 2.38851 16.347 2.94951 16.5636C3.49011 16.7725 4.1084 16.9149 5.01314 16.9546C5.91788 16.9942 6.20909 17.0033 8.51667 16.9989C10.8243 16.9945 11.1148 16.9843 12.0214 16.9413C12.928 16.8983 13.5422 16.7535 14.0825 16.5423C14.6413 16.3237 15.1151 16.0323 15.5861 15.559C16.0572 15.0857 16.3472 14.6114 16.5633 14.0515C16.7727 13.5109 16.915 12.8926 16.9543 11.9885C16.9939 11.0812 17.0032 10.7915 16.9988 8.48363C16.9944 6.17571 16.984 5.88637 16.941 4.97993C16.898 4.07349 16.754 3.45792 16.542 2.91749C16.3236 2.3587 16.032 1.88559 15.5591 1.41384C15.0862 0.942087 14.6115 0.652237 14.0517 0.436677C13.5108 0.227407 12.8928 0.084777 11.9881 0.045677C11.0833 0.00657697 10.7921 -0.00345303 8.48369 0.00096697C6.17526 0.00538697 5.88626 0.015247 4.97965 0.059447ZM5.07893 15.4254C4.25018 15.3894 3.80019 15.2517 3.50031 15.1364C3.10319 14.9834 2.82031 14.7985 2.52145 14.5025C2.22259 14.2065 2.03899 13.9226 1.88395 13.5263C1.7675 13.2265 1.62725 12.777 1.58849 11.9482C1.54633 11.0525 1.53749 10.7836 1.53256 8.51423C1.52763 6.2449 1.5363 5.9763 1.57557 5.08023C1.61093 4.25216 1.74948 3.80166 1.86457 3.50195C2.01757 3.10432 2.20185 2.82195 2.4985 2.52326C2.79515 2.22457 3.0782 2.04063 3.47481 1.88559C3.77435 1.76863 4.22383 1.62957 5.05224 1.59013C5.94865 1.54763 6.21725 1.53913 8.48624 1.5342C10.7552 1.52927 11.0245 1.53777 11.9213 1.57721C12.7493 1.61325 13.2 1.75044 13.4994 1.86621C13.8967 2.01921 14.1794 2.20298 14.4781 2.50014C14.7768 2.7973 14.9609 3.07933 15.1159 3.47679C15.233 3.77548 15.3721 4.22479 15.4112 5.05371C15.4539 5.95012 15.4636 6.21889 15.4676 8.48771C15.4717 10.7565 15.4637 11.026 15.4245 11.9217C15.3882 12.7505 15.2509 13.2006 15.1355 13.5008C14.9825 13.8978 14.798 14.1808 14.5012 14.4794C14.2044 14.7779 13.9217 14.9618 13.5249 15.1169C13.2257 15.2336 12.7757 15.373 11.948 15.4125C11.0515 15.4546 10.7829 15.4635 8.5131 15.4684C6.24326 15.4733 5.97551 15.4642 5.0791 15.4254M12.0083 3.95704C12.0086 4.15879 12.0688 4.35591 12.1812 4.52347C12.2935 4.69103 12.4531 4.82149 12.6396 4.89837C12.8261 4.97526 13.0313 4.99509 13.2291 4.95538C13.4269 4.91566 13.6085 4.81818 13.7509 4.67526C13.8933 4.53234 13.9901 4.3504 14.0291 4.15245C14.0681 3.9545 14.0475 3.74944 13.9699 3.56319C13.8923 3.37695 13.7613 3.21789 13.5933 3.10613C13.4254 2.99437 13.228 2.93493 13.0263 2.93534C12.7558 2.93588 12.4966 3.04381 12.3057 3.23541C12.1148 3.42701 12.0079 3.68658 12.0083 3.95704ZM4.1356 8.50845C4.14036 10.919 6.09808 12.8688 8.50817 12.8642C10.9183 12.8596 12.8694 10.902 12.8648 8.49145C12.8602 6.08085 10.9019 4.13061 8.49151 4.13537C6.08108 4.14013 4.13101 6.09819 4.1356 8.50845ZM5.66662 8.50539C5.66552 7.945 5.83061 7.39686 6.14102 6.9303C6.45144 6.46374 6.89323 6.0997 7.41054 5.88422C7.92785 5.66875 8.49743 5.61151 9.04727 5.71975C9.59711 5.82799 10.1025 6.09684 10.4995 6.49231C10.8966 6.88778 11.1674 7.39211 11.2779 7.94151C11.3883 8.49092 11.3333 9.06073 11.1199 9.57889C10.9064 10.097 10.5442 10.5403 10.0788 10.8525C9.61349 11.1648 9.06601 11.3321 8.50562 11.3332C8.13353 11.334 7.76492 11.2614 7.42085 11.1197C7.07679 10.978 6.76401 10.7699 6.50037 10.5074C6.23674 10.2448 6.02741 9.93281 5.88436 9.58931C5.7413 9.24581 5.66732 8.87749 5.66662 8.50539Z" fill="#111D15"/>
</g>
<defs>
<clipPath id="clip0_0_321">
<rect width="16.6234" height="16.6234" fill="white" transform="scale(1.02266)"/>
</clipPath>
</defs>
</svg>
