<svg width="78" height="67" viewBox="0 0 78 67" fill="none" xmlns="http://www.w3.org/2000/svg">
<rect width="78" height="67" rx="4" fill="#36B864"/>
<path d="M41.4883 53.6558C45.2283 51.125 47.792 48.4135 49.1794 45.5212C50.5668 42.6891 51.2605 39.9776 51.2605 37.3865C51.2605 34.6147 50.5065 32.1442 48.9984 29.975C47.4301 27.866 45.7109 26.0282 43.8409 24.4615C42.9964 23.5577 42.5741 22.5635 42.5741 21.4788C42.5741 20.2135 42.9964 18.918 43.8409 17.5923C44.6854 16.2667 45.8014 15.0314 47.1888 13.8865C48.5762 12.7417 50.2049 11.8077 52.0749 11.0846C53.8846 10.3615 55.7847 10 57.7754 10C59.7057 10 61.3344 10.4821 62.6615 11.4462C63.9282 12.4103 64.9537 13.5853 65.7379 14.9712C66.5221 16.3571 67.0952 17.8032 67.4571 19.3096C67.819 20.8763 68 22.2622 68 23.4673C68 26.9622 67.3666 30.3064 66.0998 33.5C64.8331 36.7538 63.1139 39.7968 60.9423 42.6288C58.7707 45.4609 56.2371 48.0519 53.3417 50.4019C50.4462 52.8122 47.3999 54.9513 44.2028 56.8192L41.4883 53.6558ZM10 53.8365C13.6797 51.3058 16.2434 48.5942 17.6911 45.7019C19.0785 42.8699 19.7722 40.1583 19.7722 37.5673C19.7722 34.7955 19.0182 32.325 17.5101 30.1558C15.9418 28.0468 14.2226 26.209 12.3526 24.6423C11.5081 23.7385 11.0858 22.7442 11.0858 21.6596C11.0858 20.3942 11.5081 19.0987 12.3526 17.7731C13.1971 16.4474 14.3131 15.2122 15.7005 14.0673C17.0879 12.9224 18.7166 11.9885 20.5866 11.2654C22.3963 10.5423 24.2964 10.1808 26.2871 10.1808C28.2174 10.1808 29.8159 10.6628 31.0827 11.6269C32.3495 12.591 33.4051 13.766 34.2496 15.1519C35.0338 16.5378 35.6069 17.984 35.9688 19.4904C36.2704 21.0571 36.4212 22.4429 36.4212 23.6481C36.4212 27.1429 35.7878 30.4872 34.5211 33.6808C33.2543 36.9346 31.5351 39.9776 29.3635 42.8096C27.1919 45.6417 24.6885 48.2327 21.8534 50.5827C18.9579 52.9929 15.9116 55.132 12.7145 57L10 53.8365Z" fill="#ECEAEA"/>
</svg>
