<svg width="8" height="7" viewBox="0 0 8 7" fill="none" xmlns="http://www.w3.org/2000/svg">
<path d="M2.33947 5.6915L2.34029 5.69058L0.115842 3.1972C0.0407478 3.11017 -0.000848291 2.99357 1.3117e-05 2.8725C0.000874525 2.75143 0.0441244 2.63559 0.120447 2.54992C0.19677 2.46425 0.300059 2.41561 0.408068 2.41447C0.516077 2.41333 0.620163 2.45979 0.697907 2.54384L2.92236 5.03768L7.29176 0.140963C7.32976 0.0968621 7.37522 0.0616861 7.42547 0.037487C7.47573 0.0132878 7.52979 0.000550193 7.58448 1.74338e-05C7.63918 -0.000515326 7.69342 0.0111673 7.74405 0.0343838C7.79467 0.0576004 7.84067 0.0918858 7.87935 0.135239C7.91802 0.178593 7.94861 0.230147 7.96932 0.286893C7.99004 0.343638 8.00046 0.40444 7.99998 0.465749C7.99951 0.527058 7.98814 0.587647 7.96655 0.643981C7.94497 0.700315 7.91358 0.751265 7.87424 0.793859L3.21319 6.01795C3.13594 6.10451 3.03118 6.15314 2.92195 6.15314C2.81272 6.15314 2.70796 6.10451 2.63071 6.01795L2.33947 5.6915Z" fill="white"/>
</svg>
