<svg width="29" height="48" viewBox="0 0 29 48" fill="none" xmlns="http://www.w3.org/2000/svg">
<path d="M20.9494 30.8571C20.9381 29.4107 20.5755 27.9918 19.8969 26.7384C19.2183 25.485 18.2467 24.4395 17.0764 23.7034L29 1.71429L26.2128 0L14.0057 22.5017C12.5076 22.1456 10.9494 22.1948 9.47379 22.645C7.99815 23.0951 6.65213 23.9317 5.55883 25.0783C-0.473039 31.2686 -0.00582592 45.7406 0.0167292 46.3543C0.033383 46.797 0.210445 47.2156 0.510795 47.5224C0.811144 47.8292 1.21146 48.0004 1.62781 48H25.7795C26.1176 48 26.4472 47.8868 26.7215 47.6764C26.9958 47.466 27.2009 47.1692 27.3079 46.8278C27.4148 46.4865 27.4181 46.118 27.3173 45.7746C27.2164 45.4311 27.0166 45.1302 26.7461 44.9143C21.0429 40.3611 20.9494 30.9497 20.9494 30.8571ZM12.7765 25.7091C14.0659 25.7242 15.3003 26.2677 16.2227 27.2266C17.1451 28.1854 17.6846 29.4858 17.7289 30.8571C17.7289 30.9223 17.7321 31.2137 17.7563 31.6611L8.25094 27.1629C8.87707 26.6135 9.5996 26.202 10.3765 25.9525C11.1534 25.7029 11.9692 25.6202 12.7765 25.7091ZM18.4474 44.5714C17.1597 43.1762 16.3389 41.3691 16.1114 39.4286H12.8892C13.0046 41.253 13.5402 43.0193 14.4488 44.5714H10.8673C10.2048 42.3467 9.80167 40.0437 9.66708 37.7143H6.44492C6.54882 40.0367 6.9084 42.3382 7.51629 44.5714H3.22277C3.27272 41.424 3.68998 34.4709 6.12754 29.9091L18.2638 35.652C18.8469 38.8737 20.09 41.919 21.9048 44.5714H18.4474Z" fill="#36B864"/>
</svg>
