<svg width="18" height="24" viewBox="0 0 18 24" fill="none" xmlns="http://www.w3.org/2000/svg">
<path d="M9 11.4C8.14752 11.4 7.32995 11.0839 6.72716 10.5213C6.12436 9.95871 5.78571 9.19565 5.78571 8.4C5.78571 7.60435 6.12436 6.84129 6.72716 6.27868C7.32995 5.71607 8.14752 5.4 9 5.4C9.85248 5.4 10.67 5.71607 11.2728 6.27868C11.8756 6.84129 12.2143 7.60435 12.2143 8.4C12.2143 8.79397 12.1311 9.18407 11.9696 9.54805C11.8081 9.91203 11.5713 10.2427 11.2728 10.5213C10.9744 10.7999 10.62 11.0209 10.2301 11.1716C9.84008 11.3224 9.42211 11.4 9 11.4ZM9 0C6.61305 0 4.32387 0.884997 2.63604 2.4603C0.948211 4.03561 0 6.17218 0 8.4C0 14.7 9 24 9 24C9 24 18 14.7 18 8.4C18 6.17218 17.0518 4.03561 15.364 2.4603C13.6761 0.884997 11.3869 0 9 0Z" fill="white"/>
</svg>
