<svg width="24" height="24" viewBox="0 0 24 24" fill="none" xmlns="http://www.w3.org/2000/svg">
<path fill-rule="evenodd" clip-rule="evenodd" d="M14.2631 0.0453531C14.014 0.136483 13.8059 0.31378 13.6763 0.545131C13.603 0.680681 13.5606 0.830793 13.5521 0.984683C13.5437 1.13857 13.5695 1.29242 13.6276 1.43517C13.6857 1.57792 13.7747 1.70603 13.8882 1.81029C14.0017 1.91455 14.1368 1.99238 14.284 2.03818C14.3647 2.06228 14.5344 2.09476 14.6612 2.10943C15.4302 2.19849 16.4382 2.50757 17.2387 2.90048C18.9293 3.71841 20.2889 5.09059 21.0913 6.78869C21.48 7.59965 21.7052 8.32994 21.8477 9.25091C21.9221 9.73078 22.0018 9.92252 22.2113 10.1237C22.4041 10.3081 22.6178 10.3877 22.9175 10.3877C23.2171 10.3877 23.4309 10.3081 23.6237 10.1237C23.9401 9.81984 24.0072 9.51913 23.9034 8.85486C23.5702 6.64038 22.5349 4.59137 20.9498 3.00945C19.3656 1.42524 17.3675 0.414162 15.1222 0.0579262C14.6654 -0.0154165 14.4412 -0.0185598 14.2631 0.0453531ZM2.48631 1.10987C1.87001 1.24325 1.3074 1.55714 0.870186 2.01151C0.432976 2.46589 0.14098 3.04017 0.031424 3.66115C-0.125739 4.56431 0.322699 7.04329 1.01736 9.10946C2.42764 13.3068 5.10883 17.0451 8.57794 19.6499C10.3906 21.0105 12.3956 22.0939 14.5271 22.8644C16.4005 23.5307 18.9056 24.0515 19.9628 23.9959C21.1091 23.9352 22.094 23.2751 22.6021 22.2273C22.8976 21.6165 22.8965 21.627 22.8965 19.2727C22.8965 16.8953 22.8997 16.9278 22.5791 16.2729C22.3982 15.9051 22.1464 15.5766 21.8382 15.3064C21.5301 15.0362 21.1715 14.8295 20.7832 14.6982C20.5001 14.6206 20.2129 14.5587 19.923 14.5127C19.1058 14.3755 18.6165 14.2518 17.7416 13.9627C17.0679 13.7395 17.0019 13.7259 16.5189 13.7081C15.9122 13.685 15.5403 13.7531 15.0845 13.9721C14.634 14.1879 14.437 14.3357 13.9005 14.8627L13.4112 15.3425L12.9785 15.0471C11.3681 13.9332 9.97506 12.5341 8.86817 10.9189L8.61881 10.548L9.09658 10.0598C9.62675 9.51599 9.77867 9.31378 9.99032 8.86639C10.202 8.42109 10.2722 8.03761 10.2502 7.43306C10.2334 6.95738 10.2198 6.89137 9.9966 6.21767C9.70742 5.34279 9.58379 4.85349 9.44653 4.03624C9.40058 3.74632 9.33867 3.45915 9.26108 3.17604C9.12996 2.78766 8.92332 2.42904 8.65305 2.12084C8.38279 1.81263 8.05424 1.56092 7.68631 1.38019C7.04404 1.06586 7.0849 1.07006 4.81232 1.05748C3.11706 1.04805 2.73148 1.05643 2.48631 1.10987ZM6.76114 3.24833C7.14776 3.45788 7.25882 3.67163 7.39398 4.47001C7.52495 5.24745 7.73555 6.0867 7.97653 6.79917C8.18504 7.41106 8.21437 7.70233 8.09807 7.98313C8.05407 8.08895 7.74184 8.43681 7.20015 8.98478C6.41014 9.78526 6.36719 9.8366 6.29803 10.0744C6.16811 10.5187 6.2907 10.8267 7.04613 11.9594C8.33026 13.8853 9.97726 15.5426 11.8951 16.8387C13.1294 17.6707 13.429 17.7943 13.8848 17.6612C14.1227 17.5921 14.174 17.5502 14.9776 16.7549C15.4942 16.2436 15.8797 15.8968 15.973 15.858C16.2454 15.7438 16.5524 15.7763 17.1601 15.9827C17.8715 16.2237 18.7118 16.4343 19.4882 16.5653C20.2887 16.7004 20.5087 16.8178 20.7225 17.2191C20.7947 17.3542 20.8021 17.5041 20.8136 19.1784C20.8209 20.3686 20.8105 21.0476 20.7811 21.1565C20.6711 21.5631 20.2216 21.913 19.8099 21.913C19.549 21.913 18.804 21.8093 18.1188 21.6773C12.9995 20.6903 8.35477 17.6486 5.48498 13.4053C4.10404 11.3611 3.19983 9.39445 2.61518 7.15855C2.3501 6.14327 2.09026 4.6649 2.08921 4.16093C2.08816 3.89375 2.25685 3.54694 2.47059 3.37721C2.77025 3.13937 2.78492 3.13832 4.77041 3.1488C6.5495 3.15823 6.59769 3.16032 6.76114 3.24833ZM14.2631 4.23636C14.0551 4.30673 13.8747 4.44094 13.7475 4.61986C13.6204 4.79877 13.5529 5.01327 13.5548 5.23278C13.5548 5.4549 13.5768 5.5471 13.6763 5.72941C13.8366 6.02383 14.064 6.17576 14.503 6.28472C16.1019 6.68077 17.245 7.81025 17.6588 9.40074C17.7887 9.90366 17.9281 10.1174 18.2298 10.2829C18.3698 10.359 18.5254 10.402 18.6846 10.4086C18.8437 10.4152 19.0023 10.3852 19.1481 10.321C19.2939 10.2567 19.423 10.1599 19.5256 10.038C19.6281 9.91608 19.7014 9.77227 19.7397 9.61762C19.8769 9.10527 19.4096 7.77358 18.7537 6.80441C18.4226 6.31511 17.6442 5.53663 17.1549 5.20554C16.1239 4.50773 14.7723 4.0551 14.2631 4.23636Z" fill="white"/>
</svg>
